<svg width="572" height="282" viewBox="0 0 572 282" fill="none" xmlns="http://www.w3.org/2000/svg">
<rect x="32.9668" y="275.593" width="89.6978" height="6.40699" fill="#353535"/>
<rect x="122.664" y="269.185" width="83.2908" height="6.40699" fill="#353535"/>
<rect x="373.01" y="275.593" width="89.6978" height="6.40699" fill="#353535"/>
<rect x="462.709" y="269.185" width="32.0349" height="6.40699" fill="#353535"/>
<rect x="494.742" y="275.593" width="57.6629" height="6.40699" fill="#353535"/>
<rect width="6.40699" height="153.768" transform="matrix(-1 0 0 1 13.7451 38.5354)" fill="#353535"/>
<rect x="13.7451" y="192.304" width="6.40699" height="76.8838" fill="#353535"/>
<rect x="552.407" y="230.745" width="6.40699" height="44.8489" fill="#353535"/>
<rect x="558.813" y="102.606" width="6.40699" height="128.14" fill="#353535"/>
<rect x="552.407" y="83.3856" width="6.40699" height="19.221" fill="#353535"/>
<rect x="546" y="64.1637" width="6.40699" height="19.221" fill="#353535"/>
<rect x="552.407" y="57.7557" width="12.814" height="6.40699" fill="#353535"/>
<rect x="565.22" y="19.3134" width="6.40699" height="38.4419" fill="#353535"/>
<rect x="558.813" y="12.9078" width="6.40699" height="6.40699" fill="#353535"/>
<rect x="449.895" y="6.50024" width="108.919" height="6.40699" fill="#353535"/>
<rect x="405.046" y="12.9078" width="44.8489" height="6.40699" fill="#353535"/>
<rect x="225.65" y="6.50024" width="179.396" height="6.40699" fill="#353535"/>
<rect x="39.3721" y="12.9078" width="19.221" height="6.40699" fill="#353535"/>
<rect x="32.9668" y="19.3134" width="6.40699" height="12.814" fill="#353535"/>
<rect x="13.7451" y="32.1272" width="19.221" height="6.40699" fill="#353535"/>
<rect x="20.1494" y="269.185" width="12.814" height="6.40699" fill="#353535"/>
<rect x="225.65" y="12.9078" width="179.396" height="256.279" fill="#353535"/>
<rect x="39.3721" y="19.3134" width="19.221" height="249.872" fill="#353535"/>
<rect x="20.1494" y="38.5354" width="19.221" height="153.768" fill="#353535"/>
<rect x="13.7451" y="38.5354" width="6.40699" height="153.768" fill="#353535"/>
<rect x="552.407" y="102.606" width="6.40699" height="128.14" fill="#353535"/>
<rect x="552.407" y="19.3134" width="12.814" height="38.4419" fill="#353535"/>
<rect x="20.1494" y="192.304" width="19.221" height="76.8838" fill="#353535"/>
<rect x="32.9668" y="269.185" width="89.6978" height="6.40699" fill="#353535"/>
<rect x="373.01" y="269.185" width="89.6978" height="6.40699" fill="#353535"/>
<rect x="494.742" y="102.606" width="57.6629" height="172.989" fill="#353535"/>
<rect x="405.046" y="19.3134" width="89.6978" height="249.872" fill="#353535"/>
<rect x="449.895" y="12.9078" width="108.919" height="6.40699" fill="#353535"/>
<rect x="546" y="83.3856" width="6.40699" height="19.221" fill="#353535"/>
<rect x="546" y="19.3134" width="6.40699" height="44.8489" fill="#353535"/>
<rect x="494.742" y="19.3134" width="51.2559" height="83.2908" fill="#353535"/>
<rect x="26.5605" y="269.183" width="89.6978" height="6.40699" fill="#1A1A1A"/>
<rect x="116.257" y="262.775" width="83.2908" height="6.40699" fill="#1A1A1A"/>
<rect x="373.01" y="269.183" width="83.2908" height="6.40699" fill="#1A1A1A"/>
<rect x="456.302" y="262.775" width="32.0349" height="6.40699" fill="#1A1A1A"/>
<rect x="494.743" y="269.183" width="51.2559" height="6.40699" fill="#1A1A1A"/>
<rect width="6.40699" height="153.768" transform="matrix(-1 0 0 1 7.33887 32.1257)" fill="#1A1A1A"/>
<rect x="7.33887" y="185.894" width="6.40699" height="76.8838" fill="#1A1A1A"/>
<rect x="545.998" y="224.335" width="6.40699" height="44.8489" fill="#1A1A1A"/>
<rect x="552.406" y="96.1958" width="6.40699" height="128.14" fill="#1A1A1A"/>
<rect x="545.998" y="76.9753" width="6.40699" height="19.221" fill="#1A1A1A"/>
<rect x="539.593" y="57.7534" width="6.40699" height="19.221" fill="#1A1A1A"/>
<rect x="545.998" y="51.3453" width="12.814" height="6.40699" fill="#1A1A1A"/>
<rect x="558.812" y="12.903" width="6.40699" height="38.4419" fill="#1A1A1A"/>
<rect x="552.406" y="6.49744" width="6.40699" height="6.40699" fill="#1A1A1A"/>
<rect x="443.486" y="0.0893555" width="108.919" height="6.40699" fill="#1A1A1A"/>
<rect x="398.639" y="6.49744" width="44.8489" height="6.40699" fill="#1A1A1A"/>
<rect x="52.1855" y="0.0893555" width="179.396" height="6.40699" fill="#1A1A1A"/>
<rect x="32.9668" y="6.49744" width="19.221" height="6.40699" fill="#1A1A1A"/>
<rect x="26.5605" y="12.903" width="6.40699" height="12.814" fill="#1A1A1A"/>
<rect x="7.33887" y="25.7179" width="19.221" height="6.40699" fill="#1A1A1A"/>
<rect x="13.7441" y="262.775" width="12.814" height="6.40699" fill="#1A1A1A"/>
<rect x="52.3379" y="5.87512" width="376" height="257.031" fill="#1A1A1A"/>
<rect x="32.9668" y="12.903" width="19.221" height="249.872" fill="#1A1A1A"/>
<rect x="13.7441" y="32.1257" width="19.221" height="153.768" fill="#1A1A1A"/>
<rect x="7.33887" y="32.1257" width="6.40699" height="153.768" fill="#1A1A1A"/>
<rect x="545.998" y="96.1958" width="6.40699" height="128.14" fill="#1A1A1A"/>
<rect x="545.998" y="12.903" width="12.814" height="38.4419" fill="#1A1A1A"/>
<rect x="13.7441" y="185.894" width="19.221" height="76.8838" fill="#1A1A1A"/>
<rect x="26.5605" y="262.775" width="89.6978" height="6.40699" fill="#1A1A1A"/>
<rect x="366.604" y="262.775" width="89.6978" height="6.40699" fill="#1A1A1A"/>
<rect x="488.334" y="96.1958" width="57.6629" height="172.989" fill="#1A1A1A"/>
<rect x="398.639" y="12.903" width="89.6978" height="249.872" fill="#1A1A1A"/>
<rect x="443.486" y="6.49744" width="108.919" height="6.40699" fill="#1A1A1A"/>
<rect x="539.593" y="76.9753" width="6.40699" height="19.221" fill="#1A1A1A"/>
<rect x="539.593" y="12.903" width="6.40699" height="44.8489" fill="#1A1A1A"/>
<rect x="488.334" y="12.903" width="51.2559" height="83.2908" fill="#1A1A1A"/>
<rect x="26.5605" y="25.7179" width="6.40699" height="6.40699" fill="#1A1A1A"/>
<rect x="533.186" y="76.886" width="6.40699" height="128.14" fill="#BCBCBC" fill-opacity="0.06"/>
<rect x="533.186" y="76.886" width="6.40699" height="128.14" fill="#BCBCBC" fill-opacity="0.06"/>
<rect x="32.9668" y="76.886" width="6.40699" height="128.14" fill="#BCBCBC" fill-opacity="0.06"/>
<rect x="39.3701" y="57.6653" width="6.40699" height="32.0349" transform="rotate(180 39.3701 57.6653)" fill="#BCBCBC" fill-opacity="0.06"/>
<rect x="64.998" y="25.63" width="6.40699" height="25.6279" transform="rotate(90 64.998 25.63)" fill="#BCBCBC" fill-opacity="0.06"/>
<rect x="39.3691" y="38.4458" width="6.40699" height="6.40699" fill="#BCBCBC" fill-opacity="0.06"/>
<rect x="45.7803" y="32.038" width="6.40699" height="6.40699" fill="#BCBCBC" fill-opacity="0.06"/>
<rect x="52.1855" y="44.8503" width="6.40699" height="6.40699" fill="#BCBCBC" fill-opacity="0.06"/>
<rect width="6.40699" height="32.0349" transform="matrix(-1 0 0 1 39.3701 224.242)" fill="#BCBCBC" fill-opacity="0.06"/>
<rect width="6.40699" height="25.6279" transform="matrix(0 -1 -1 0 64.998 256.278)" fill="#BCBCBC" fill-opacity="0.06"/>
<rect width="6.40699" height="6.40699" transform="matrix(1 0 0 -1 39.3691 243.465)" fill="#BCBCBC" fill-opacity="0.06"/>
<rect width="6.40699" height="6.40699" transform="matrix(1 0 0 -1 45.7803 249.873)" fill="#BCBCBC" fill-opacity="0.06"/>
<rect width="6.40699" height="6.40699" transform="matrix(1 0 0 -1 52.1855 237.058)" fill="#BCBCBC" fill-opacity="0.06"/>
<rect x="533.188" y="224.243" width="6.40699" height="32.0349" fill="#BCBCBC" fill-opacity="0.06"/>
<rect x="507.56" y="256.279" width="6.40699" height="25.6279" transform="rotate(-90 507.56 256.279)" fill="#BCBCBC" fill-opacity="0.06"/>
<rect x="533.188" y="243.466" width="6.40699" height="6.40699" transform="rotate(180 533.188 243.466)" fill="#BCBCBC" fill-opacity="0.06"/>
<rect x="526.776" y="249.875" width="6.40699" height="6.40699" transform="rotate(180 526.776 249.875)" fill="#BCBCBC" fill-opacity="0.06"/>
<rect x="520.373" y="237.059" width="6.40699" height="6.40699" transform="rotate(180 520.373 237.059)" fill="#BCBCBC" fill-opacity="0.06"/>
<rect width="6.40699" height="32.0349" transform="matrix(1 0 0 -1 533.188 57.6655)" fill="#BCBCBC" fill-opacity="0.06"/>
<rect width="6.40699" height="25.6279" transform="matrix(0 1 1 0 507.56 25.63)" fill="#BCBCBC" fill-opacity="0.06"/>
<rect width="6.40699" height="6.40699" transform="matrix(-1 0 0 1 533.188 38.4448)" fill="#BCBCBC" fill-opacity="0.06"/>
<rect width="6.40699" height="6.40699" transform="matrix(-1 0 0 1 526.776 32.038)" fill="#BCBCBC" fill-opacity="0.06"/>
<rect width="6.40699" height="6.40699" transform="matrix(-1 0 0 1 520.373 44.8503)" fill="#BCBCBC" fill-opacity="0.06"/>
<rect width="6.40699" height="128.14" transform="matrix(1 0 0 -1 552.408 224.245)" fill="black"/>
<rect x="552.408" y="269.093" width="6.40699" height="44.8489" transform="rotate(180 552.408 269.093)" fill="black"/>
<rect x="545.997" y="275.5" width="51.2559" height="6.40699" transform="rotate(180 545.997 275.5)" fill="black"/>
<rect x="494.742" y="269.093" width="38.4419" height="6.40699" transform="rotate(180 494.742 269.093)" fill="black"/>
<rect x="456.302" y="275.5" width="83.2908" height="6.40699" transform="rotate(180 456.302 275.5)" fill="black"/>
<rect x="205.956" y="269.093" width="89.6978" height="6.40699" transform="rotate(180 205.956 269.093)" fill="black"/>
<rect x="116.257" y="275.5" width="89.6978" height="6.40699" transform="rotate(180 116.257 275.5)" fill="black"/>
<rect x="26.5605" y="269.093" width="12.814" height="6.40699" transform="rotate(180 26.5605 269.093)" fill="black"/>
<rect x="13.7432" y="262.688" width="6.40699" height="76.8838" transform="rotate(180 13.7432 262.688)" fill="black"/>
<rect x="7.33887" y="185.804" width="6.40699" height="153.768" transform="rotate(180 7.33887 185.804)" fill="black"/>
<rect width="6.40699" height="12.814" transform="matrix(1 0 0 -1 545.997 89.6985)" fill="black"/>
<rect width="6.40699" height="19.221" transform="matrix(1 0 0 -1 539.593 76.886)" fill="black"/>
<rect width="6.40699" height="6.40699" transform="matrix(1 0 0 -1 552.408 57.663)" fill="black"/>
<rect width="6.40699" height="12.814" transform="matrix(1 0 0 -1 552.408 19.2206)" fill="black"/>
<rect width="6.40699" height="12.814" transform="matrix(1 0 0 -1 545.997 12.8151)" fill="black"/>
<rect width="6.40699" height="38.4419" transform="matrix(1 0 0 -1 558.812 51.2561)" fill="black"/>
<rect x="7.33887" y="25.63" width="19.221" height="6.40699" fill="black"/>
<rect x="26.5605" y="12.8151" width="6.40699" height="12.814" fill="black"/>
<rect x="32.9668" y="6.4071" width="19.221" height="6.40699" fill="black"/>
<rect x="52.3379" y="0.00012207" width="218.843" height="5.87499" fill="black"/>
<rect x="398.639" y="6.4071" width="44.8489" height="6.40699" fill="black"/>
<rect x="443.488" y="0.00012207" width="102.512" height="6.40699" fill="black"/>
<rect x="306.431" y="0.00012207" width="102.512" height="6.40699" fill="black"/>
<rect x="545.997" y="172.989" width="6.40699" height="12.814" fill="black"/>
<rect x="545.997" y="115.326" width="6.40699" height="6.40699" fill="black"/>
<rect x="545.997" y="25.63" width="12.814" height="6.40699" fill="black"/>
<rect x="552.408" y="32.0355" width="6.40699" height="6.40699" fill="black"/>
<rect x="462.709" y="6.4071" width="44.8489" height="6.40699" fill="black"/>
<rect x="475.521" y="12.8151" width="12.814" height="6.40699" fill="black"/>
<rect x="161.104" y="6.4071" width="12.814" height="6.40699" fill="black"/>
<rect x="167.512" y="12.8151" width="6.40699" height="6.40699" fill="black"/>
<rect x="205.956" y="6.4071" width="19.221" height="6.40699" fill="black"/>
<rect x="52.1855" y="6.4071" width="6.40699" height="6.40699" fill="black"/>
<rect x="52.1855" y="12.8151" width="12.814" height="6.40699" fill="black"/>
<rect x="7.33887" y="32.0355" width="6.40699" height="44.8489" fill="black"/>
<rect x="13.7432" y="32.0355" width="6.40699" height="25.6279" fill="black"/>
<rect x="7.33887" y="128.141" width="6.40699" height="32.0349" fill="black"/>
<rect x="13.7432" y="153.769" width="6.40699" height="19.221" fill="black"/>
<rect x="7.33887" y="172.989" width="6.40699" height="12.814" fill="black"/>
<rect x="13.7432" y="192.209" width="6.40699" height="44.8489" fill="black"/>
<rect x="13.7432" y="243.467" width="6.40699" height="6.40699" fill="black"/>
<rect x="52.1855" y="262.688" width="19.221" height="6.40699" fill="black"/>
<rect x="77.8164" y="262.688" width="12.814" height="6.40699" fill="black"/>
<rect x="154.699" y="256.28" width="25.6279" height="6.40699" fill="black"/>
<rect x="411.454" y="262.688" width="6.40699" height="6.40699" fill="black"/>
<rect x="437.079" y="262.688" width="12.814" height="6.40699" fill="black"/>
<rect x="475.521" y="256.28" width="12.814" height="6.40699" fill="black"/>
<rect x="520.373" y="262.688" width="6.40699" height="6.40699" fill="black"/>
</svg>
