<svg width="275" height="192" viewBox="0 0 275 192" fill="none" xmlns="http://www.w3.org/2000/svg">
<rect x="21.8113" y="187.638" width="61.0709" height="4.36221" fill="#353535"/>
<rect x="82.8816" y="183.275" width="56.7087" height="4.36221" fill="#353535"/>
<rect x="139.59" y="187.638" width="61.0709" height="4.36221" fill="#353535"/>
<rect x="200.662" y="183.275" width="21.811" height="4.36221" fill="#353535"/>
<rect x="222.471" y="187.638" width="39.2599" height="4.36221" fill="#353535"/>
<rect width="4.36221" height="104.693" transform="matrix(-1 0 0 1 8.72437 26.2373)" fill="#353535"/>
<rect x="8.72437" y="130.931" width="4.36221" height="52.3465" fill="#353535"/>
<rect x="261.733" y="157.104" width="4.36221" height="30.5355" fill="#353535"/>
<rect x="266.094" y="69.8594" width="4.36221" height="87.2442" fill="#353535"/>
<rect x="261.733" y="56.7734" width="4.36221" height="13.0866" fill="#353535"/>
<rect x="257.37" y="43.6855" width="4.36221" height="13.0866" fill="#353535"/>
<rect x="261.733" y="39.3232" width="8.72442" height="4.36221" fill="#353535"/>
<rect x="270.456" y="13.1494" width="4.36221" height="26.1733" fill="#353535"/>
<rect x="266.094" y="8.78809" width="4.36221" height="4.36221" fill="#353535"/>
<rect x="191.937" y="4.42578" width="74.1576" height="4.36221" fill="#353535"/>
<rect x="161.401" y="8.78809" width="30.5355" height="4.36221" fill="#353535"/>
<rect x="39.2595" y="4.42578" width="122.142" height="4.36221" fill="#353535"/>
<rect x="26.1725" y="8.78809" width="13.0866" height="4.36221" fill="#353535"/>
<rect x="21.8113" y="13.1494" width="4.36221" height="8.72442" fill="#353535"/>
<rect x="8.72437" y="21.874" width="13.0866" height="4.36221" fill="#353535"/>
<rect x="13.0842" y="183.275" width="8.72442" height="4.36221" fill="#353535"/>
<rect x="39.2595" y="8.78809" width="122.142" height="174.488" fill="#353535"/>
<rect x="26.1725" y="13.1494" width="13.0866" height="170.126" fill="#353535"/>
<rect x="13.0842" y="26.2373" width="13.0866" height="104.693" fill="#353535"/>
<rect x="8.72437" y="26.2373" width="4.36221" height="104.693" fill="#353535"/>
<rect x="261.733" y="69.8594" width="4.36221" height="87.2442" fill="#353535"/>
<rect x="261.733" y="13.1494" width="8.72442" height="26.1733" fill="#353535"/>
<rect x="13.0842" y="130.931" width="13.0866" height="52.3465" fill="#353535"/>
<rect x="21.8113" y="183.275" width="61.0709" height="4.36221" fill="#353535"/>
<rect x="139.59" y="183.275" width="61.0709" height="4.36221" fill="#353535"/>
<rect x="222.471" y="69.8594" width="39.2599" height="117.78" fill="#353535"/>
<rect x="161.401" y="13.1494" width="61.0709" height="170.126" fill="#353535"/>
<rect x="191.937" y="8.78809" width="74.1576" height="4.36221" fill="#353535"/>
<rect x="257.37" y="56.7734" width="4.36221" height="13.0866" fill="#353535"/>
<rect x="257.37" y="13.1494" width="4.36221" height="30.5355" fill="#353535"/>
<rect x="222.471" y="13.1494" width="34.8977" height="56.7087" fill="#353535"/>
<rect x="17.4498" y="183.273" width="61.0709" height="4.36221" fill="#111111"/>
<rect x="78.5195" y="178.91" width="56.7087" height="4.36221" fill="#111111"/>
<rect x="139.59" y="183.273" width="56.7087" height="4.36221" fill="#111111"/>
<rect x="196.3" y="178.91" width="21.811" height="4.36221" fill="#111111"/>
<rect x="222.472" y="183.273" width="34.8977" height="4.36221" fill="#111111"/>
<rect width="4.36221" height="104.693" transform="matrix(-1 0 0 1 4.36218 21.873)" fill="#111111"/>
<rect x="4.36218" y="126.565" width="4.36221" height="52.3465" fill="#111111"/>
<rect x="257.369" y="152.738" width="4.36221" height="30.5355" fill="#111111"/>
<rect x="261.732" y="65.4951" width="4.36221" height="87.2442" fill="#111111"/>
<rect x="257.369" y="52.4082" width="4.36221" height="13.0866" fill="#111111"/>
<rect x="253.008" y="39.3213" width="4.36221" height="13.0866" fill="#111111"/>
<rect x="257.369" y="34.958" width="8.72442" height="4.36221" fill="#111111"/>
<rect x="266.094" y="8.78418" width="4.36221" height="26.1733" fill="#111111"/>
<rect x="261.732" y="4.42383" width="4.36221" height="4.36221" fill="#111111"/>
<rect x="187.574" y="0.0605469" width="74.1576" height="4.36221" fill="#111111"/>
<rect x="157.039" y="4.42383" width="30.5355" height="4.36221" fill="#111111"/>
<rect x="34.8967" y="0.0605469" width="122.142" height="4.36221" fill="#111111"/>
<rect x="21.811" y="4.42383" width="13.0866" height="4.36221" fill="#111111"/>
<rect x="17.4498" y="8.78418" width="4.36221" height="8.72442" fill="#111111"/>
<rect x="4.36218" y="17.5098" width="13.0866" height="4.36221" fill="#111111"/>
<rect x="8.72351" y="178.91" width="8.72442" height="4.36221" fill="#111111"/>
<rect x="34.8967" y="4.42383" width="122.142" height="174.488" fill="#111111"/>
<rect x="21.811" y="8.78418" width="13.0866" height="170.126" fill="#111111"/>
<rect x="8.72351" y="21.873" width="13.0866" height="104.693" fill="#111111"/>
<rect x="4.36218" y="21.873" width="4.36221" height="104.693" fill="#111111"/>
<rect x="257.369" y="65.4951" width="4.36221" height="87.2442" fill="#111111"/>
<rect x="257.369" y="8.78418" width="8.72442" height="26.1733" fill="#111111"/>
<rect x="8.72351" y="126.565" width="13.0866" height="52.3465" fill="#111111"/>
<rect x="17.4498" y="178.91" width="61.0709" height="4.36221" fill="#111111"/>
<rect x="135.228" y="178.91" width="61.0709" height="4.36221" fill="#111111"/>
<rect x="218.108" y="65.4951" width="39.2599" height="117.78" fill="#111111"/>
<rect x="157.039" y="8.78418" width="61.0709" height="170.126" fill="#111111"/>
<rect x="187.574" y="4.42383" width="74.1576" height="4.36221" fill="#111111"/>
<rect x="253.008" y="52.4082" width="4.36221" height="13.0866" fill="#111111"/>
<rect x="253.008" y="8.78418" width="4.36221" height="30.5355" fill="#111111"/>
<rect x="218.108" y="8.78418" width="34.8977" height="56.7087" fill="#111111"/>
<rect x="17.4498" y="17.5098" width="4.36221" height="4.36221" fill="#111111"/>
<rect x="248.646" y="52.3477" width="4.36221" height="87.2442" fill="#FF0000"/>
<rect x="248.646" y="52.3477" width="4.36221" height="87.2442" fill="#FF0000"/>
<rect x="21.811" y="52.3477" width="4.36221" height="87.2442" fill="#FF0000"/>
<rect x="26.1708" y="39.2617" width="4.36221" height="21.811" transform="rotate(180 26.1708 39.2617)" fill="#FF0000"/>
<rect x="43.6196" y="17.4502" width="4.36221" height="17.4488" transform="rotate(90 43.6196 17.4502)" fill="#FF0000"/>
<rect x="26.1705" y="26.1758" width="4.36221" height="4.36221" fill="#FF0000"/>
<rect x="30.535" y="21.8135" width="4.36221" height="4.36221" fill="#FF0000"/>
<rect x="34.8962" y="30.5361" width="4.36221" height="4.36221" fill="#FF0000"/>
<rect width="4.36221" height="21.811" transform="matrix(-1 0 0 1 26.1708 152.676)" fill="#FF0000"/>
<rect width="4.36221" height="17.4488" transform="matrix(0 -1 -1 0 43.6196 174.487)" fill="#FF0000"/>
<rect width="4.36221" height="4.36221" transform="matrix(1 0 0 -1 26.1705 165.764)" fill="#FF0000"/>
<rect width="4.36221" height="4.36221" transform="matrix(1 0 0 -1 30.535 170.126)" fill="#FF0000"/>
<rect width="4.36221" height="4.36221" transform="matrix(1 0 0 -1 34.8962 161.401)" fill="#FF0000"/>
<rect x="248.647" y="152.677" width="4.36221" height="21.811" fill="#FF0000"/>
<rect x="231.198" y="174.488" width="4.36221" height="17.4488" transform="rotate(-90 231.198 174.488)" fill="#FF0000"/>
<rect x="248.647" y="165.765" width="4.36221" height="4.36221" transform="rotate(180 248.647 165.765)" fill="#FF0000"/>
<rect x="244.282" y="170.128" width="4.36221" height="4.36221" transform="rotate(180 244.282 170.128)" fill="#FF0000"/>
<rect x="239.922" y="161.402" width="4.36221" height="4.36221" transform="rotate(180 239.922 161.402)" fill="#FF0000"/>
<rect width="4.36221" height="21.811" transform="matrix(1 0 0 -1 248.647 39.2617)" fill="#FF0000"/>
<rect width="4.36221" height="17.4488" transform="matrix(0 1 1 0 231.198 17.4502)" fill="#FF0000"/>
<rect width="4.36221" height="4.36221" transform="matrix(-1 0 0 1 248.647 26.1748)" fill="#FF0000"/>
<rect width="4.36221" height="4.36221" transform="matrix(-1 0 0 1 244.282 21.8125)" fill="#FF0000"/>
<rect width="4.36221" height="4.36221" transform="matrix(-1 0 0 1 239.922 30.5361)" fill="#FF0000"/>
<rect width="4.36221" height="87.2442" transform="matrix(1 0 0 -1 261.734 152.678)" fill="#737373"/>
<rect x="261.734" y="183.212" width="4.36221" height="30.5355" transform="rotate(180 261.734 183.212)" fill="#737373"/>
<rect x="257.369" y="187.574" width="34.8977" height="4.36221" transform="rotate(180 257.369 187.574)" fill="#737373"/>
<rect x="222.472" y="183.212" width="26.1733" height="4.36221" transform="rotate(180 222.472 183.212)" fill="#737373"/>
<rect x="196.3" y="187.574" width="56.7087" height="4.36221" transform="rotate(180 196.3 187.574)" fill="#737373"/>
<rect x="139.591" y="183.212" width="61.0709" height="4.36221" transform="rotate(180 139.591 183.212)" fill="#737373"/>
<rect x="78.5195" y="187.574" width="61.0709" height="4.36221" transform="rotate(180 78.5195 187.574)" fill="#737373"/>
<rect x="17.4498" y="183.212" width="8.72442" height="4.36221" transform="rotate(180 17.4498 183.212)" fill="#737373"/>
<rect x="8.72278" y="178.852" width="4.36221" height="52.3465" transform="rotate(180 8.72278 178.852)" fill="#737373"/>
<rect x="4.36218" y="126.505" width="4.36221" height="104.693" transform="rotate(180 4.36218 126.505)" fill="#737373"/>
<rect width="4.36221" height="8.72442" transform="matrix(1 0 0 -1 257.369 61.0713)" fill="#737373"/>
<rect width="4.36221" height="13.0866" transform="matrix(1 0 0 -1 253.008 52.3477)" fill="#737373"/>
<rect width="4.36221" height="4.36221" transform="matrix(1 0 0 -1 261.734 39.2598)" fill="#737373"/>
<rect width="4.36221" height="8.72442" transform="matrix(1 0 0 -1 261.734 13.0859)" fill="#737373"/>
<rect width="4.36221" height="8.72442" transform="matrix(1 0 0 -1 257.369 8.72461)" fill="#737373"/>
<rect width="4.36221" height="26.1733" transform="matrix(1 0 0 -1 266.094 34.8975)" fill="#737373"/>
<rect x="4.36218" y="17.4502" width="13.0866" height="4.36221" fill="#737373"/>
<rect x="17.4498" y="8.72461" width="4.36221" height="8.72442" fill="#737373"/>
<rect x="21.811" y="4.3623" width="13.0866" height="4.36221" fill="#737373"/>
<rect x="34.8967" width="122.142" height="4.36221" fill="#737373"/>
<rect x="157.039" y="4.3623" width="30.5355" height="4.36221" fill="#737373"/>
<rect x="187.575" width="69.7953" height="4.36221" fill="#737373"/>
<rect x="257.369" y="117.78" width="4.36221" height="8.72442" fill="#737373"/>
<rect x="257.369" y="78.5195" width="4.36221" height="4.36221" fill="#737373"/>
<rect x="257.369" y="17.4502" width="8.72442" height="4.36221" fill="#737373"/>
<rect x="261.734" y="21.8115" width="4.36221" height="4.36221" fill="#737373"/>
<rect x="200.661" y="4.3623" width="30.5355" height="4.36221" fill="#737373"/>
<rect x="209.385" y="8.72461" width="8.72442" height="4.36221" fill="#737373"/>
<rect x="109.054" y="4.3623" width="8.72442" height="4.36221" fill="#737373"/>
<rect x="113.417" y="8.72461" width="4.36221" height="4.36221" fill="#737373"/>
<rect x="139.591" y="4.3623" width="13.0866" height="4.36221" fill="#737373"/>
<rect x="34.8967" y="4.3623" width="4.36221" height="4.36221" fill="#737373"/>
<rect x="34.8967" y="8.72461" width="8.72442" height="4.36221" fill="#737373"/>
<rect x="4.36218" y="21.8115" width="4.36221" height="30.5355" fill="#737373"/>
<rect x="8.72278" y="21.8115" width="4.36221" height="17.4488" fill="#737373"/>
<rect x="4.36218" y="87.2451" width="4.36221" height="21.811" fill="#737373"/>
<rect x="8.72278" y="104.693" width="4.36221" height="13.0866" fill="#737373"/>
<rect x="4.36218" y="117.78" width="4.36221" height="8.72442" fill="#737373"/>
<rect x="8.72278" y="130.866" width="4.36221" height="30.5355" fill="#737373"/>
<rect x="8.72278" y="165.765" width="4.36221" height="4.36221" fill="#737373"/>
<rect x="34.8967" y="178.852" width="13.0866" height="4.36221" fill="#737373"/>
<rect x="52.3469" y="178.852" width="8.72442" height="4.36221" fill="#737373"/>
<rect x="104.693" y="174.488" width="17.4488" height="4.36221" fill="#737373"/>
<rect x="165.764" y="178.852" width="4.36221" height="4.36221" fill="#737373"/>
<rect x="183.211" y="178.852" width="8.72442" height="4.36221" fill="#737373"/>
<rect x="209.385" y="174.488" width="8.72442" height="4.36221" fill="#737373"/>
<rect x="239.922" y="178.852" width="4.36221" height="4.36221" fill="#737373"/>
</svg>
